<svg width="195" height="32" viewBox="0 0 195 32" fill="none" xmlns="http://www.w3.org/2000/svg">
<g clip-path="url(#clip0_2046_1243)">
<path d="M38.8896 4.48218H48.4872C50.5555 4.48218 52.2367 5.06443 53.3996 6.16336C54.4666 7.13271 55.0808 8.55476 55.0808 10.2999C55.0808 12.9169 53.8843 14.5005 51.5585 15.3099V15.4074C54.209 16.1513 56.0502 18.0244 56.0502 21.0956C56.0502 22.9704 55.4679 24.4884 54.369 25.6209C53.1725 26.8494 51.2993 27.5916 48.9079 27.5916H38.8896V4.48218ZM48.4569 14.63C51.269 14.63 52.8845 12.9825 52.8845 10.4615C52.8845 7.94051 51.2034 6.3889 48.5224 6.3889H41.0571V14.63H48.4585H48.4569ZM48.78 25.6177C50.5571 25.6177 51.8496 25.101 52.691 24.2932C53.4348 23.5494 53.8539 22.4841 53.8539 21.126C53.8539 18.1844 51.8176 16.5048 48.78 16.5048H41.0555V25.6177H48.78Z" fill="black"/>
<path d="M58.7343 4.48218H60.7386V27.59H58.7343V4.48218Z" fill="black"/>
<path d="M63.3235 19.2512C63.3235 14.2749 66.2652 10.4934 71.08 10.4934C75.8948 10.4934 78.7725 14.2749 78.7725 19.2512C78.7725 24.2276 75.8964 28.009 71.08 28.009C66.2636 28.009 63.3235 24.2276 63.3235 19.2512ZM76.7346 19.2512C76.7346 15.3402 74.7959 12.173 71.0784 12.173C67.3609 12.173 65.3902 15.3402 65.3902 19.2512C65.3902 23.1622 67.3289 26.3294 71.0784 26.3294C74.8279 26.3294 76.7346 23.1622 76.7346 19.2512Z" fill="black"/>
<path d="M80.4185 19.2512C80.4185 14.2749 83.197 10.4934 88.0454 10.4934C91.7292 10.4934 94.2182 12.4977 94.7669 15.9225H92.7626C92.2779 13.4335 90.6303 12.173 88.0438 12.173C84.1983 12.173 82.4851 15.3722 82.4851 19.2512C82.4851 23.1302 84.2303 26.2959 88.0118 26.2959C90.8559 26.2959 92.633 24.5187 92.9561 21.8362H94.8629C94.4742 25.6176 91.9868 28.009 88.0118 28.009C83.1314 28.009 80.4169 24.2276 80.4169 19.2512H80.4185Z" fill="black"/>
<path d="M97.1599 4.48218H99.1642V18.9282L107.469 10.8806H110.022L103.624 16.9239L110.798 27.5884H108.471L102.234 18.2164L99.1642 21.158V27.5884H97.1599V4.48218Z" fill="black"/>
<path d="M111.444 4.48218H130.027V8.42519H123.078V27.59H118.391V8.42519H111.443V4.48218H111.444Z" fill="black"/>
<path d="M134.003 13.6607H134.101C135.102 11.786 136.235 10.8167 138.174 10.8167C138.658 10.8167 138.949 10.8486 139.207 10.9462V14.7917H139.109C136.233 14.5005 134.165 16.0202 134.165 19.5105V27.5901H129.769V11.0118H134.003V13.6623V13.6607Z" fill="black"/>
<path d="M150.55 25.7473H150.486C149.646 27.0078 148.449 27.9771 145.605 27.9771C142.213 27.9771 139.821 26.2 139.821 22.9032C139.821 19.2513 142.795 18.0884 146.479 17.5701C149.225 17.183 150.486 16.9559 150.486 15.6954C150.486 14.4349 149.548 13.7247 147.707 13.7247C145.639 13.7247 144.638 14.4685 144.508 16.0521H140.597C140.727 13.144 142.891 10.5911 147.739 10.5911C152.588 10.5911 154.72 12.8209 154.72 16.6983V25.133C154.72 26.3935 154.913 27.1373 155.302 27.4269V27.5884H151.068C150.809 27.2653 150.647 26.4895 150.551 25.7457L150.55 25.7473ZM150.583 21.7403V19.2513C149.808 19.704 148.613 19.9631 147.514 20.2207C145.22 20.7373 144.087 21.2556 144.087 22.8056C144.087 24.3556 145.122 24.9059 146.672 24.9059C149.193 24.9059 150.583 23.3543 150.583 21.7387V21.7403Z" fill="black"/>
<path d="M155.98 11.0103H160.44L163.091 19.6065C163.575 21.1901 163.834 22.257 163.834 22.257H163.898C163.898 22.257 164.124 21.1901 164.609 19.6065L167.323 11.0103H171.719L165.935 27.5885H161.734L155.982 11.0103H155.98Z" fill="black"/>
<path d="M171.914 19.2832C171.914 14.3708 175.243 10.5574 180.091 10.5574C185.424 10.5574 188.268 14.63 188.268 20.5437H176.246C176.569 23.0966 177.991 24.6802 180.48 24.6802C182.193 24.6802 183.194 23.9044 183.679 22.6439H188.009C187.395 25.5856 184.778 28.073 180.512 28.073C175.017 28.073 171.916 24.2276 171.916 19.2832H171.914ZM176.308 17.506H183.676C183.546 15.4058 182.156 13.9517 180.154 13.9517C177.826 13.9517 176.695 15.3418 176.308 17.506Z" fill="black"/>
<path d="M190.367 4.48218H194.763V27.59H190.367V4.48218Z" fill="black"/>
<path d="M28.5946 12.5393C30.0518 12.5905 31.1172 13.2767 31.7266 14.5916C32.3281 15.8905 32.0258 17.4133 31.0372 18.4067C28.9337 20.5181 26.8318 22.6296 24.7156 24.7283C23.5143 25.9184 21.7211 26.0655 20.3439 25.1218C18.9906 24.1956 18.4611 22.4169 19.1426 20.8892C19.3409 20.4429 19.6608 20.0238 20.0064 19.6719C21.9899 17.6532 23.9974 15.6601 25.9953 13.6574C26.7135 12.9376 27.5565 12.5185 28.5962 12.5393H28.5946Z" fill="black"/>
<path d="M18.8658 10.751C18.8658 10.415 18.8626 10.0807 18.8658 9.74482C18.8882 7.86688 20.2959 6.37286 22.1434 6.26408C23.8246 6.16491 25.469 7.47178 25.7153 9.10658C25.9121 10.4118 25.4738 11.6211 24.586 12.373C23.9494 12.9104 23.1752 13.0672 23.044 13.0928C22.4425 13.2112 21.6411 13.1952 20.5822 13.3631C20.4462 13.3855 20.1871 13.4287 19.9728 13.6286C19.768 13.8174 19.7072 14.0509 19.6288 14.3709C19.5889 14.5308 19.5505 14.7388 19.5169 15.577C19.5041 15.8921 19.5009 16.1112 19.4977 16.1544C19.4033 18.0739 17.8517 19.5136 15.9578 19.4672C14.0734 19.4208 12.5842 17.8708 12.597 15.9721C12.6018 15.345 12.7682 14.7612 13.0593 14.2605C13.6351 13.2687 14.8828 12.5713 16.0265 12.5457C16.0937 12.5457 16.4568 12.5393 16.9479 12.5009C17.2982 12.4737 17.511 12.4449 17.6709 12.4193C18.17 12.3394 18.4195 12.2994 18.5491 12.1826C18.8258 11.9347 18.8546 11.5044 18.8722 11.1909C18.8834 11.0053 18.8722 10.8533 18.8642 10.7542L18.8658 10.751Z" fill="black"/>
<path d="M8.71479 18.4883C9.05071 18.4883 9.38503 18.4851 9.72094 18.4883C11.5989 18.5107 13.0929 19.9183 13.2017 21.7658C13.3008 23.447 11.994 25.0914 10.3592 25.3378C9.05391 25.5345 7.84461 25.0962 7.0928 24.2084C6.55533 23.5718 6.39857 22.7976 6.37298 22.6664C6.25461 22.065 6.27061 21.2636 6.10265 20.2046C6.08025 20.0687 6.03706 19.8095 5.83711 19.5952C5.64836 19.3904 5.41482 19.3297 5.0949 19.2513C4.93494 19.2113 4.72699 19.1729 3.8888 19.1393C3.57368 19.1265 3.35453 19.1233 3.31135 19.1201C1.39502 19.0273 -0.0462152 17.4741 0.000173231 15.5818C0.0465616 13.6975 1.59657 12.2082 3.4953 12.221C4.12234 12.2258 4.7062 12.3922 5.20687 12.6833C6.19862 13.2592 6.89605 14.5069 6.92164 15.6506C6.92164 15.7178 6.92804 16.0809 6.96643 16.5719C6.99362 16.9223 7.02242 17.135 7.04801 17.295C7.12799 17.794 7.16798 18.0436 7.28475 18.1731C7.53269 18.4499 7.96298 18.4787 8.2765 18.4963C8.46206 18.5075 8.61402 18.4963 8.71319 18.4883H8.71479Z" fill="black"/>
<path d="M16.0362 6.92307C14.131 6.92147 12.5826 5.36026 12.5986 3.46153C12.6146 1.53881 14.1454 0 16.0442 0C17.9669 0 19.5249 1.56921 19.5089 3.49672C19.4929 5.40825 17.9557 6.92627 16.0362 6.92467V6.92307Z" fill="black"/>
<path d="M9.76413 13.1888C7.86381 13.1856 6.31699 11.626 6.32979 9.72083C6.34099 7.8285 7.91659 6.25449 9.79293 6.25929C11.6837 6.26569 13.2401 7.8221 13.2529 9.72243C13.2657 11.6451 11.7108 13.1904 9.76573 13.1872L9.76413 13.1888Z" fill="black"/>
<path d="M16.1081 25.0688C18.0388 25.12 19.5569 26.7148 19.5009 28.6376C19.4465 30.5315 17.8405 32.0511 15.9514 31.9983C14.0526 31.9439 12.533 30.3459 12.5842 28.4552C12.6354 26.5437 14.2206 25.0209 16.1081 25.0704V25.0688Z" fill="black"/>
</g>
<defs>
<clipPath id="clip0_2046_1243">
<rect width="194.762" height="32" fill="white"/>
</clipPath>
</defs>
</svg>
